<?xml version="1.0" encoding="utf-8"?>
<!-- Generator: Adobe Illustrator 15.1.0, SVG Export Plug-In . SVG Version: 6.00 Build 0)  -->
<!DOCTYPE svg PUBLIC "-//W3C//DTD SVG 1.1//EN" "http://www.w3.org/Graphics/SVG/1.1/DTD/svg11.dtd">
<svg version="1.1" xmlns="http://www.w3.org/2000/svg" xmlns:xlink="http://www.w3.org/1999/xlink" x="0px" y="0px" width="505px"
	 height="319.998px" viewBox="0 0 505 319.998" enable-background="new 0 0 505 319.998" xml:space="preserve">
<g id="Layer_1" display="none">
	<image overflow="visible" width="529" height="400" xlink:href="Artboard 1.png"  transform="matrix(1 0 0 1 -11 -8)">
	</image>
	
		<rect x="2.5" y="2.5" display="inline" fill="none" stroke="#000000" stroke-width="5" stroke-miterlimit="10" width="500" height="309"/>
	<g display="inline">
		<defs>
			<path id="SVGID_1_" d="M158,242h-8.037l-12.301,10h-3.539c-6.018,0-11.123,3.594-12.123,9.285c0,0.328,0-0.082,0,0.244
				c0,4.075,2.109,7.674,5.195,9.865l13.673,6.824c0.938,1.099,1.132,1.994,1.132,1.994V287h-15.23l-2.272-2H85.994l-2.272,2H69
				v-6.787c0,0-0.104-0.896,0.832-1.994l12.636-6.858c2.779-1.58,4.651-4.558,4.651-7.982c0-6.346-5.647-9.243-11.986-9.243
				l-5.805-0.002l-0.006-3.043c-31.985-0.323-38.112-18.359-38.112-18.359c-0.132-0.196-0.209-0.432-0.209-0.684
				c0-0.677,0.548-1.162,1.224-1.162c0.057,0,12.922,0.115,12.922,0.115H60v-2.22l9,0.003V225l76.711,0.11L158,233.335V242z"/>
		</defs>
		<clipPath id="SVGID_2_">
			<use xlink:href="#SVGID_1_"  overflow="visible"/>
		</clipPath>
		<rect x="26" y="220" clip-path="url(#SVGID_2_)" fill-rule="evenodd" clip-rule="evenodd" width="137" height="72"/>
	</g>
	<text transform="matrix(1 0 0 1 231 294.998)" display="inline" font-family="'BookmanJFRoman'" font-size="100">USA</text>
	<text transform="matrix(1 0 0 1 29 166)" display="inline" font-family="'BrothersRegular'" font-size="174">ACME</text>
	<polygon display="inline" points="504,192 4,192 4,198 191,198 191,311 196,311 196,198 504,198 	"/>
</g>
<g id="Layer_1_copy">
	
		<image display="none" overflow="visible" width="529" height="400" xlink:href="Artboard 1.png"  transform="matrix(1 0 0 1 -11 -8)">
	</image>
	<rect x="2.5" y="2.5" fill="none" stroke="#252429" stroke-width="5" stroke-miterlimit="10" width="500" height="309"/>
	<g>
		<defs>
			<path id="SVGID_3_" d="M158,242h-8.037l-12.301,10h-3.539c-6.018,0-11.123,3.594-12.123,9.285c0,0.328,0-0.082,0,0.244
				c0,4.075,2.109,7.674,5.195,9.865l13.673,6.824c0.938,1.099,1.132,1.994,1.132,1.994V287h-15.23l-2.272-2H85.994l-2.272,2H69
				v-6.787c0,0-0.104-0.896,0.832-1.994l12.636-6.858c2.779-1.58,4.651-4.558,4.651-7.982c0-6.346-5.647-9.243-11.986-9.243
				l-5.805-0.002l-0.006-3.043c-31.985-0.323-38.112-18.359-38.112-18.359c-0.132-0.196-0.209-0.432-0.209-0.684
				c0-0.677,0.548-1.162,1.224-1.162c0.057,0,12.922,0.115,12.922,0.115H60v-2.22l9,0.003V225l76.711,0.11L158,233.335V242z"/>
		</defs>
		<clipPath id="SVGID_4_">
			<use xlink:href="#SVGID_3_"  overflow="visible"/>
		</clipPath>
		
			<rect x="26" y="220" clip-path="url(#SVGID_4_)" fill-rule="evenodd" clip-rule="evenodd" fill="#252429" width="137" height="72"/>
	</g>
	<g>
		<path fill="#252429" d="M312.6,221.698c-6.734,2-10.1,4.935-10.1,8.8v38.6c0,8.601-2.617,15.4-7.85,20.4
			c-5.234,5-12.25,7.5-21.051,7.5c-8.8,0-15.967-2.283-21.5-6.85c-5.534-4.566-8.3-10.716-8.3-18.45v-40.9
			c0-4.399-3.3-7.465-9.899-9.199v-4.601H267.8v4.7c-3.134,0.935-5.1,1.635-5.899,2.1c-2.335,1.268-3.5,3.067-3.5,5.4v42.6
			c0,5.135,1.832,9.2,5.5,12.2c3.266,2.734,7.266,4.1,12,4.1c5.332,0,9.665-1.732,13-5.199c3.332-3.466,5-8.266,5-14.4v-38
			c0-4.266-3.367-7.133-10.101-8.6v-4.9h28.8V221.698z"/>
		<path fill="#252429" d="M388.898,273.698c0,6.467-2.717,11.967-8.149,16.5c-5.435,4.534-12.15,6.8-20.15,6.8
			c-8.268,0-16-1.6-23.2-4.8l-3.1,3.6h-6.101l-8.8-21l5.2-2.899c3.6,4.734,7.933,8.634,13,11.699c6.533,4,13.5,6,20.9,6
			c5.065,0,9.35-1.133,12.85-3.399c3.5-2.266,5.25-5.065,5.25-8.4c0-5.466-4.9-9.833-14.7-13.1c-9.134-3-18.234-6-27.3-9
			c-9.8-4.733-14.7-11.533-14.7-20.4c0-6.133,2.8-11.1,8.4-14.899c5.266-3.533,11.766-5.3,19.5-5.3c7.2,0,13.766,1.334,19.7,4l3-3.5
			h5l8.5,19.1l-4.7,2.899c-8.067-9.999-17.9-14.999-29.5-14.999c-5,0-9.034,0.884-12.101,2.649c-3.066,1.768-4.6,4.05-4.6,6.851
			c0,5.534,4.833,9.899,14.5,13.1c8.933,2.935,17.865,5.834,26.8,8.7C384.064,258.433,388.898,265.032,388.898,273.698z"/>
		<path fill="#252429" d="M470.599,294.998h-33.101v-4.701c5.333-1.335,8-3.635,8-6.903c0-1.065-0.228-2.233-0.683-3.502
			l-4.394-11.894h-23.062l-3.725,10.414c-0.625,1.732-0.937,3.166-0.937,4.297c0,3.597,2.8,6.161,8.4,7.692v4.597h-28v-4.8
			c6.065-1.2,10.333-5.166,12.8-11.9l22.599-61.399h7.501l23.898,63.3c2.133,5.6,5.7,8.935,10.702,10V294.998z M437.872,261.498
			l-8.908-23.873l-9.104,23.873H437.872z"/>
	</g>
	<g>
		<path fill="#252429" d="M35.967,152.066L62.05,55.551l-2.634-11.385h46.983l-2.549,11.385l26.083,96.516L136.9,166h-35.684
			l1.699-13.934l-3.483-13.934l-1.699-1.699h-33.05l-1.784,1.699l-3.483,13.934L61.2,166H29L35.967,152.066z M70.801,115.533h20.815
			l1.784-1.699l-11.3-46.983l-0.935-5.268l-0.85,5.268l-11.3,46.983L70.801,115.533z"/>
		<path fill="#252429" d="M150.749,68.55l24.384-24.384h43.5l9.516,28.717l-17.927-6.032h-18.606l-8.666,4.333l-4.333,8.666v50.467
			l4.333,8.751l8.666,4.333h20.051l18.267-6.117L220.332,166h-45.199l-24.384-24.384V68.55z"/>
		<path fill="#252429" d="M249.898,152.066V58.1l-3.483-13.934h33.899l24.384,55.225l0.85,3.993l0.85-3.993l24.384-55.225h33.899
			L361.282,58.1v93.967L364.681,166h-32.115l3.483-13.934V89.45l0.85-6.967l-2.634,6.967l-29.566,67.884h-0.85L274.282,89.45
			l-2.634-6.967l0.85,6.967v62.616L275.981,166h-29.566L249.898,152.066z"/>
		<path fill="#252429" d="M396.031,152.066V58.1l-3.483-13.934h69.583l8.666,26.168l-15.633-5.268h-31.351l-1.699,1.784v20.815
			l1.699,1.784h14.868l12.999-4.333v29.566l-12.999-4.333h-14.868l-1.699,1.699v28.717l2.634,2.634h30.416l18.267-6.117L463.915,166
			h-71.367L396.031,152.066z"/>
	</g>
	<polygon fill="#252429" points="504,192 4,192 4,198 191,198 191,311 196,311 196,198 504,198 	"/>
</g>
</svg>
